<svg width="404" height="142" viewBox="0 0 404 142" fill="none" xmlns="http://www.w3.org/2000/svg">
<g id="Github-Explorer">
<g id="logos:github-octocat">
<path id="Vector" d="M327.781 95.6599C327.781 100.645 317.719 104.662 305.312 104.662C292.906 104.662 282.844 100.609 282.844 95.6599C282.844 90.6745 292.906 86.6575 305.312 86.6575C317.719 86.6575 327.781 90.6745 327.781 95.6599Z" fill="#9EDCF2"/>
<path id="Vector_2" d="M327.781 95.6599C327.781 100.645 317.719 104.662 305.312 104.662C292.906 104.662 282.844 100.609 282.844 95.6599C282.844 90.6745 292.906 86.6575 305.312 86.6575C317.719 86.6575 327.781 90.6745 327.781 95.6599Z" fill="#7B61FF"/>
<path id="Vector_3" d="M279.656 69.155L279 71.7374C279 71.7374 278.844 72.6699 279.594 72.8492C280.406 72.8133 280.344 71.9526 280.281 71.7015L279.656 69.155Z" fill="#9EDCF2"/>
<path id="Vector_4" d="M344.938 58.2878L345 57.965C338.406 56.4587 331.656 56.4228 327.562 56.638C328.219 53.8763 328.438 50.6484 328.438 47.0977C328.438 41.9689 326.75 37.8802 324.062 34.7957C324.531 33.0383 325.156 29.1289 323.438 24.1436C323.438 24.1436 320.375 23.0317 313.406 28.3757C310.687 27.5867 307.781 27.1922 304.875 27.1922C301.687 27.1922 298.469 27.6584 295.438 28.5909C288.25 22.96 285.094 24.1077 285.094 24.1077C283.031 30.0256 284.312 34.4371 284.688 35.513C282.25 38.5258 280.781 42.3634 280.781 47.0618C280.781 50.6125 281.125 53.8046 282 56.5663C277.875 56.3869 271.375 56.4587 265 57.9292L265.063 58.252C271.437 56.7815 278 56.7456 282.094 56.9249C282.281 57.4988 282.5 58.0726 282.719 58.6106C278.656 58.7541 271.75 59.3638 265.125 61.5157L265.219 61.8385C271.906 59.6866 278.875 59.1127 282.906 58.9693C285.344 64.1339 290.094 67.5053 298.594 68.5454C297.375 69.478 296.156 71.0561 295.656 73.746C294 74.6426 288.812 76.8663 285.687 70.6974C285.687 70.6974 283.938 67.0391 280.594 66.7522C280.594 66.7522 277.344 66.6804 280.375 69.0834C280.375 69.0834 282.531 70.267 284.031 74.6785C284.031 74.6785 286 82.2103 295.406 79.7714V87.4826C295.406 87.4826 295.219 90.2443 293 91.1409C293 91.1409 291.688 92.181 293.094 92.7549C293.094 92.7549 299.188 93.3287 299.188 87.5902V79.1259C299.188 79.1259 298.937 75.7545 300.375 74.6068V88.5227C300.375 88.5227 300.281 91.8582 298.781 93.1135C298.781 93.1135 297.781 95.1579 299.969 94.6199C299.969 94.6199 304.156 93.9384 304.344 88.3075L304.437 74.2122H305.437L305.531 88.3075C305.719 93.9026 309.906 94.6199 309.906 94.6199C312.094 95.1937 311.094 93.1135 311.094 93.1135C309.594 91.8582 309.5 88.5227 309.5 88.5227V74.7144C310.937 76.0055 310.687 79.1259 310.687 79.1259V87.5902C310.687 93.3287 316.781 92.7549 316.781 92.7549C318.187 92.181 316.875 91.1409 316.875 91.1409C314.688 90.2084 314.469 87.4826 314.469 87.4826V76.3642C314.469 72.0244 312.875 69.729 311.312 68.5454C320.375 67.5053 324.719 64.1698 326.719 58.9334C330.687 59.041 337.844 59.6149 344.656 61.8385L344.75 61.5157C337.969 59.3279 330.875 58.7541 326.844 58.6106C327.031 58.0726 327.188 57.5346 327.344 56.9608C331.531 56.7815 338.313 56.7815 344.938 58.2878V58.2878Z" fill="#010101"/>
<path id="Vector_5" d="M319.563 46.8465C321.5 48.8909 322.656 51.3297 322.656 53.9479C322.656 66.2858 314.656 66.6086 304.781 66.6086C294.906 66.6086 286.906 64.887 286.906 53.9479C286.906 51.3297 288.031 48.8909 289.969 46.8824C293.188 43.511 298.625 45.3043 304.781 45.3043C310.938 45.3043 316.344 43.4751 319.563 46.8465V46.8465Z" fill="#F5CCB3"/>
<path id="Vector_6" d="M298.844 54.5935C298.844 58.0008 297.187 60.7266 295.125 60.7266C293.063 60.7266 291.406 57.9649 291.406 54.5935C291.406 51.1863 293.063 48.4605 295.125 48.4605C297.187 48.4246 298.844 51.1863 298.844 54.5935V54.5935Z" fill="white"/>
<path id="Vector_7" d="M297.656 54.6653C297.656 56.9248 296.531 58.754 295.188 58.754C293.813 58.754 292.719 56.9248 292.719 54.6653C292.719 52.4057 293.844 50.5766 295.188 50.5766C296.531 50.5766 297.656 52.4057 297.656 54.6653Z" fill="#AF5C51"/>
<path id="Vector_8" d="M318.813 54.5935C318.813 58.0008 317.156 60.7266 315.094 60.7266C313.031 60.7266 311.375 57.9649 311.375 54.5935C311.375 51.1863 313.031 48.4605 315.094 48.4605C317.125 48.4246 318.813 51.1863 318.813 54.5935V54.5935Z" fill="white"/>
<path id="Vector_9" d="M317.594 54.6653C317.594 56.9248 316.469 58.754 315.125 58.754C313.75 58.754 312.656 56.9248 312.656 54.6653C312.656 52.4057 313.781 50.5766 315.125 50.5766C316.5 50.5766 317.594 52.4057 317.594 54.6653Z" fill="#AF5C51"/>
<path id="Vector_10" d="M305.781 60.0451C305.781 60.619 305.375 61.1211 304.844 61.1211C304.344 61.1211 303.906 60.6548 303.906 60.0451C303.906 59.4354 304.312 58.9692 304.844 58.9692C305.344 58.9692 305.781 59.4354 305.781 60.0451Z" fill="#AF5C51"/>
<path id="Vector_11" d="M302.687 62.7351C302.625 62.5557 302.719 62.3764 302.875 62.3047C303.031 62.2329 303.187 62.3405 303.25 62.5199C303.5 63.3089 304.125 63.811 304.844 63.811C305.562 63.811 306.187 63.273 306.437 62.5199C306.5 62.3405 306.656 62.2329 306.812 62.3047C306.969 62.3764 307.062 62.5557 307 62.7351C306.687 63.7752 305.812 64.4925 304.844 64.4925C303.875 64.4925 303 63.7752 302.687 62.7351V62.7351Z" fill="#AF5C51"/>
<path id="Vector_12" d="M282.031 67.6128C282.031 67.8997 281.75 68.1149 281.375 68.1149C281.031 68.1149 280.719 67.8997 280.719 67.6128C280.719 67.3259 281 67.1107 281.375 67.1107C281.75 67.1107 282.031 67.3259 282.031 67.6128Z" fill="#C4E5D9"/>
<path id="Vector_13" d="M283.844 68.7605C283.844 69.0474 283.563 69.2626 283.188 69.2626C282.844 69.2626 282.531 69.0474 282.531 68.7605C282.531 68.4736 282.813 68.2584 283.188 68.2584C283.563 68.2584 283.844 68.4736 283.844 68.7605Z" fill="#C4E5D9"/>
<path id="Vector_14" d="M284.937 70.2669C284.937 70.5538 284.656 70.769 284.281 70.769C283.938 70.769 283.625 70.5538 283.625 70.2669C283.625 69.9799 283.906 69.7648 284.281 69.7648C284.656 69.7289 284.937 69.9799 284.937 70.2669Z" fill="#C4E5D9"/>
<path id="Vector_15" d="M285.937 71.9884C285.937 72.2754 285.656 72.4906 285.281 72.4906C284.938 72.4906 284.625 72.2754 284.625 71.9884C284.625 71.7015 284.906 71.4863 285.281 71.4863C285.656 71.4504 285.937 71.7015 285.937 71.9884Z" fill="#C4E5D9"/>
<path id="Vector_16" d="M287.031 73.5665C287.031 73.8534 286.75 74.0686 286.375 74.0686C286.031 74.0686 285.719 73.8534 285.719 73.5665C285.719 73.2796 286 73.0644 286.375 73.0644C286.75 73.0644 287.031 73.2796 287.031 73.5665Z" fill="#C4E5D9"/>
<path id="Vector_17" d="M288.531 74.9653C288.531 75.2522 288.25 75.4674 287.875 75.4674C287.531 75.4674 287.219 75.2522 287.219 74.9653C287.219 74.6784 287.5 74.4632 287.875 74.4632C288.25 74.4273 288.531 74.6784 288.531 74.9653Z" fill="#C4E5D9"/>
<path id="Vector_18" d="M290.625 75.8619C290.625 76.1489 290.344 76.3641 289.969 76.3641C289.625 76.3641 289.312 76.1489 289.312 75.8619C289.312 75.575 289.594 75.3598 289.969 75.3598C290.344 75.3598 290.625 75.575 290.625 75.8619Z" fill="#C4E5D9"/>
<path id="Vector_19" d="M292.719 75.8619C292.719 76.1489 292.438 76.3641 292.063 76.3641C291.719 76.3641 291.406 76.1489 291.406 75.8619C291.406 75.575 291.687 75.3598 292.063 75.3598C292.438 75.3598 292.719 75.575 292.719 75.8619Z" fill="#C4E5D9"/>
</g>
<path id="GITHUB" d="M85.0859 52.1328C85.0859 52.2266 85.0703 52.3672 85.0391 52.5547C85.0078 52.7266 84.9609 52.8984 84.8984 53.0703C84.8359 53.2422 84.7578 53.3984 84.6641 53.5391C84.5703 53.6641 84.4609 53.7266 84.3359 53.7266C84.2734 53.7266 84.2188 53.7188 84.1719 53.7031C84.125 53.6875 84.0703 53.6797 84.0078 53.6797C83.8984 53.6797 83.7969 53.7344 83.7031 53.8438C83.625 53.9375 83.5312 54.0547 83.4219 54.1953C83.3281 54.3203 83.2109 54.4375 83.0703 54.5469C82.9453 54.6406 82.7812 54.6875 82.5781 54.6875C82.5 54.6875 82.3828 54.6719 82.2266 54.6406C82.2891 54.9531 82.3359 55.2656 82.3672 55.5781C82.3984 55.8906 82.4141 56.2031 82.4141 56.5156C82.4141 57.0156 82.3828 57.5078 82.3203 57.9922C82.2578 58.4609 82.1875 58.9375 82.1094 59.4219C82.0312 59.9062 81.9609 60.3906 81.8984 60.875C81.8359 61.3594 81.8047 61.8438 81.8047 62.3281C81.8047 62.9062 81.8438 63.4766 81.9219 64.0391C82.0156 64.6016 82.0625 65.1719 82.0625 65.75C82.0625 66 82.0391 66.2656 81.9922 66.5469C81.9453 66.8125 81.8594 67.0625 81.7344 67.2969C81.625 67.5312 81.4688 67.7266 81.2656 67.8828C81.0625 68.0391 80.8125 68.1172 80.5156 68.1172C80.0781 68.1172 79.7344 67.9844 79.4844 67.7188C79.25 67.4375 79.0469 67.1406 78.875 66.8281C78.7188 66.5 78.5703 66.2031 78.4297 65.9375C78.3047 65.6562 78.1328 65.5156 77.9141 65.5156C77.8047 65.5156 77.6641 65.5781 77.4922 65.7031C77.3359 65.8125 77.1562 65.9453 76.9531 66.1016C76.75 66.2578 76.5234 66.4062 76.2734 66.5469C76.0391 66.6875 75.7969 66.7812 75.5469 66.8281C75.25 66.8906 75.0469 66.9766 74.9375 67.0859C74.8281 67.1953 74.7188 67.3047 74.6094 67.4141C74.5 67.5078 74.3359 67.5938 74.1172 67.6719C73.9141 67.75 73.5547 67.7891 73.0391 67.7891C72.6953 67.7891 72.3516 67.7734 72.0078 67.7422C71.6797 67.7109 71.3438 67.6953 71 67.6953C70.75 67.6953 70.5 67.7109 70.25 67.7422C70.0156 67.7734 69.7734 67.7891 69.5234 67.7891C69.1328 67.7891 68.8125 67.7578 68.5625 67.6953C68.3125 67.6172 68.0859 67.5234 67.8828 67.4141C67.6953 67.3047 67.4922 67.1953 67.2734 67.0859C67.0703 66.9609 66.8047 66.8516 66.4766 66.7578C66.2266 66.6797 66.0234 66.6172 65.8672 66.5703C65.7109 66.5078 65.5703 66.4453 65.4453 66.3828C65.3203 66.3047 65.1953 66.2188 65.0703 66.125C64.9453 66.0156 64.7812 65.875 64.5781 65.7031C64.4531 65.6094 64.3125 65.5156 64.1562 65.4219C64 65.3281 63.8516 65.2344 63.7109 65.1406C63.5703 65.0312 63.4453 64.9141 63.3359 64.7891C63.2422 64.6641 63.1875 64.5078 63.1719 64.3203C63.1562 64.1797 63.1328 64.0781 63.1016 64.0156C63.0703 63.9531 63.0234 63.9062 62.9609 63.875C62.9141 63.8438 62.8516 63.8203 62.7734 63.8047C62.7109 63.7734 62.625 63.7266 62.5156 63.6641C62.3281 63.3828 62.1875 63.0938 62.0938 62.7969C62 62.5 61.9062 62.2109 61.8125 61.9297C61.7188 61.6328 61.6016 61.3516 61.4609 61.0859C61.3203 60.8047 61.1094 60.5469 60.8281 60.3125C60.875 60.1562 60.8984 59.9844 60.8984 59.7969C60.8984 59.4688 60.8359 59.1562 60.7109 58.8594C60.5859 58.5469 60.4453 58.2422 60.2891 57.9453C60.1484 57.6328 60.0156 57.3203 59.8906 57.0078C59.7656 56.6797 59.7031 56.3359 59.7031 55.9766C59.7031 55.7578 59.7188 55.5391 59.75 55.3203C59.7969 55.1016 59.8203 54.8828 59.8203 54.6641C59.8203 54.3672 59.7812 54.0781 59.7031 53.7969C59.6406 53.5156 59.5703 53.2422 59.4922 52.9766C59.4141 52.6953 59.3359 52.4141 59.2578 52.1328C59.1953 51.8516 59.1641 51.5625 59.1641 51.2656C59.1641 51.1719 59.1641 51.0781 59.1641 50.9844C59.1797 50.875 59.1953 50.7734 59.2109 50.6797C59.3047 50.1172 59.375 49.5469 59.4219 48.9688C59.4688 48.3906 59.5156 47.8203 59.5625 47.2578C59.6094 46.6797 59.6641 46.1094 59.7266 45.5469C59.7891 44.9688 59.8828 44.3984 60.0078 43.8359C60.1328 43.2891 60.2422 42.75 60.3359 42.2188C60.4453 41.6875 60.5 41.1484 60.5 40.6016C60.625 40.4297 60.7891 40.25 60.9922 40.0625C61.2109 39.875 61.4219 39.6875 61.625 39.5C61.8438 39.2969 62.0312 39.0938 62.1875 38.8906C62.3594 38.6719 62.4688 38.4609 62.5156 38.2578C62.5625 38.0547 62.6875 37.8047 62.8906 37.5078C63.1094 37.2109 63.3516 36.9141 63.6172 36.6172C63.8984 36.3203 64.1797 36.0625 64.4609 35.8438C64.7578 35.625 65.0078 35.5 65.2109 35.4688C65.3047 35.4531 65.4062 35.4453 65.5156 35.4453C65.6406 35.4453 65.75 35.4297 65.8438 35.3984C65.9531 35.3672 66.0469 35.3203 66.125 35.2578C66.2031 35.1953 66.2422 35.0938 66.2422 34.9531C66.2422 34.8438 66.2188 34.7266 66.1719 34.6016C67.0156 34.5234 67.8516 34.3906 68.6797 34.2031C69.5078 34.0156 70.3438 33.9219 71.1875 33.9219C71.375 33.9219 71.6719 33.9297 72.0781 33.9453C72.4844 33.9609 72.8906 34.0156 73.2969 34.1094C73.7188 34.1875 74.0859 34.3125 74.3984 34.4844C74.7109 34.6406 74.8672 34.8594 74.8672 35.1406V35.2578C74.9141 35.2422 74.9609 35.2344 75.0078 35.2344C75.0703 35.2344 75.125 35.2344 75.1719 35.2344C75.4219 35.2344 75.6641 35.2812 75.8984 35.375C76.1328 35.4688 76.375 35.5156 76.625 35.5156C76.875 35.5156 77.1328 35.5078 77.3984 35.4922C77.6797 35.4609 77.9531 35.4141 78.2188 35.3516C78.5 35.2734 78.75 35.1719 78.9688 35.0469C79.2031 34.9219 79.3984 34.7656 79.5547 34.5781C79.8984 34.5781 80.1797 34.75 80.3984 35.0938C80.6172 35.4219 80.7891 35.8125 80.9141 36.2656C81.0391 36.7188 81.125 37.1797 81.1719 37.6484C81.2344 38.1016 81.2656 38.4531 81.2656 38.7031C81.2656 39.0781 81.2344 39.4531 81.1719 39.8281C81.125 40.2031 81.0312 40.5703 80.8906 40.9297C80.9219 41.1328 80.9844 41.3125 81.0781 41.4688C81.1875 41.625 81.2969 41.7812 81.4062 41.9375C81.5312 42.0781 81.6406 42.2344 81.7344 42.4062C81.8281 42.5625 81.875 42.7422 81.875 42.9453C81.7656 43.2266 81.6953 43.6328 81.6641 44.1641C81.6484 44.6797 81.6016 45.2031 81.5234 45.7344C81.4609 46.25 81.3281 46.7031 81.125 47.0938C80.9375 47.4688 80.6172 47.6562 80.1641 47.6562C79.8516 47.6562 79.5859 47.5547 79.3672 47.3516C79.1484 47.1328 78.9844 46.8906 78.875 46.625L78.9219 46.6484C79.125 46.6484 79.2266 46.5547 79.2266 46.3672C79.2266 46.3203 79.1719 46.2578 79.0625 46.1797C78.9688 46.1016 78.8594 46.0234 78.7344 45.9453C78.6094 45.8516 78.4844 45.7656 78.3594 45.6875C78.2344 45.5938 78.1406 45.5078 78.0781 45.4297C77.9531 45.2734 77.8359 45.0703 77.7266 44.8203C77.6172 44.5703 77.5234 44.3047 77.4453 44.0234C77.3672 43.7266 77.3047 43.4375 77.2578 43.1562C77.2109 42.8594 77.1875 42.5859 77.1875 42.3359C77.1875 42.2578 77.1875 42.1875 77.1875 42.125C77.1875 42.0625 77.1953 42 77.2109 41.9375L77.1875 41.9609C77.1406 41.9453 77.0391 41.8438 76.8828 41.6562C76.7422 41.4688 76.5781 41.2656 76.3906 41.0469C76.2188 40.8125 76.0469 40.5938 75.875 40.3906C75.7188 40.1719 75.6094 40.0234 75.5469 39.9453C75.2344 39.6328 74.8984 39.3516 74.5391 39.1016C74.1797 38.8516 73.8438 38.5703 73.5312 38.2578C73.4062 38.3359 73.2734 38.4062 73.1328 38.4688C73.0078 38.5156 72.875 38.5391 72.7344 38.5391C72.6094 38.5391 72.5078 38.5156 72.4297 38.4688C72.3516 38.4062 72.2734 38.3438 72.1953 38.2812C72.1172 38.2031 72.0312 38.1328 71.9375 38.0703C71.8438 38.0078 71.7188 37.9766 71.5625 37.9766C71.2188 37.9766 70.8828 38.0156 70.5547 38.0938C70.2422 38.1719 69.9141 38.2109 69.5703 38.2109C69.2109 38.2109 68.8516 38.1406 68.4922 38C68.1484 37.8594 67.7891 37.7891 67.4141 37.7891C67.3828 37.7891 67.3359 37.7969 67.2734 37.8125C67.2266 37.8281 67.1875 37.8438 67.1562 37.8594C67.1719 38 67.2109 38.1328 67.2734 38.2578C67.3359 38.3828 67.3672 38.5156 67.3672 38.6562C67.3672 38.875 67.2734 39.0859 67.0859 39.2891C66.9141 39.4922 66.7031 39.6875 66.4531 39.875C66.2188 40.0625 65.9766 40.25 65.7266 40.4375C65.4922 40.6094 65.3125 40.7734 65.1875 40.9297C65.0156 41.1484 64.875 41.3828 64.7656 41.6328C64.6719 41.8828 64.5781 42.1328 64.4844 42.3828C64.3906 42.6172 64.2656 42.8438 64.1094 43.0625C63.9688 43.2812 63.7656 43.4609 63.5 43.6016C63.625 43.9297 63.6875 44.2422 63.6875 44.5391C63.6875 44.7578 63.6719 44.9688 63.6406 45.1719C63.6094 45.3594 63.5938 45.5625 63.5938 45.7812C63.5938 46.2812 63.6328 46.7812 63.7109 47.2812C63.7891 47.7656 63.8281 48.2578 63.8281 48.7578C63.8281 49.1641 63.7891 49.5703 63.7109 49.9766C63.6484 50.3672 63.5703 50.7656 63.4766 51.1719C63.3828 51.5625 63.2969 51.9609 63.2188 52.3672C63.1562 52.7578 63.125 53.1562 63.125 53.5625C63.125 53.9219 63.1641 54.2656 63.2422 54.5938C63.3359 54.9219 63.4375 55.2422 63.5469 55.5547C63.6562 55.8672 63.75 56.1641 63.8281 56.4453C63.9219 56.7266 63.9688 56.9922 63.9688 57.2422C63.9688 57.4141 63.9531 57.5859 63.9219 57.7578C63.8906 57.9297 63.875 58.1016 63.875 58.2734C63.875 58.9453 64.0234 59.5156 64.3203 59.9844C64.6172 60.4375 64.9531 60.8672 65.3281 61.2734C65.7188 61.6797 66.0938 62.0938 66.4531 62.5156C66.8125 62.9219 67.0547 63.4141 67.1797 63.9922C67.4141 63.9453 67.6406 63.9219 67.8594 63.9219C68.1406 63.9219 68.4219 63.9531 68.7031 64.0156C68.9844 64.0781 69.2578 64.1562 69.5234 64.25C69.7891 64.3281 70.0625 64.3984 70.3438 64.4609C70.625 64.5234 70.9062 64.5547 71.1875 64.5547C71.7812 64.5547 72.3828 64.4375 72.9922 64.2031C73.6172 63.9531 74.1875 63.625 74.7031 63.2188C75.2344 62.8125 75.6953 62.3438 76.0859 61.8125C76.4766 61.2812 76.7422 60.7266 76.8828 60.1484C77.0078 59.5859 77.1875 59.0547 77.4219 58.5547C77.5156 58.3672 77.6094 58.25 77.7031 58.2031C77.7969 58.1562 77.8828 58.125 77.9609 58.1094C78.0391 58.0938 78.1016 58.0781 78.1484 58.0625C78.1953 58.0469 78.2188 57.9922 78.2188 57.8984C78.2188 57.8047 78.1641 57.7188 78.0547 57.6406C77.9609 57.5625 77.9141 57.4609 77.9141 57.3359C77.9141 57.2891 77.9453 57.2344 78.0078 57.1719C78.0703 57.0938 78.1406 57.0078 78.2188 56.9141C78.3125 56.8203 78.3906 56.7109 78.4531 56.5859C78.5156 56.4453 78.5469 56.2969 78.5469 56.1406C78.5469 55.8125 78.4531 55.5469 78.2656 55.3438C78.0781 55.1406 77.8438 54.9688 77.5625 54.8281C77.2812 54.6719 76.9766 54.5391 76.6484 54.4297C76.3359 54.3047 76.0391 54.1562 75.7578 53.9844C75.4766 53.8125 75.2422 53.6016 75.0547 53.3516C74.8672 53.0859 74.7734 52.7422 74.7734 52.3203C74.7734 51.9766 74.8594 51.6953 75.0312 51.4766C75.2188 51.2422 75.4453 51.0547 75.7109 50.9141C75.9922 50.7734 76.2891 50.6719 76.6016 50.6094C76.9141 50.5312 77.2109 50.4688 77.4922 50.4219C77.6797 50.3906 77.8828 50.3359 78.1016 50.2578C78.3203 50.1641 78.5391 50.0781 78.7578 50C78.9766 49.9062 79.1797 49.8281 79.3672 49.7656C79.5703 49.6875 79.75 49.6484 79.9062 49.6484C80.125 49.6484 80.3438 49.6953 80.5625 49.7891C80.7812 49.8672 81 49.9219 81.2188 49.9531C81.5156 50 81.8828 50.0625 82.3203 50.1406C82.7734 50.2188 83.2031 50.3359 83.6094 50.4922C84.0156 50.6484 84.3594 50.8594 84.6406 51.125C84.9375 51.375 85.0859 51.7109 85.0859 52.1328ZM108.992 36.9688C108.992 37.1406 108.93 37.2969 108.805 37.4375C108.695 37.5781 108.555 37.7188 108.383 37.8594C108.227 37.9844 108.062 38.1016 107.891 38.2109C107.719 38.3203 107.578 38.4219 107.469 38.5156C107.203 38.7344 106.883 38.8438 106.508 38.8438C106.258 38.8438 106.016 38.8125 105.781 38.75C105.562 38.6875 105.328 38.6562 105.078 38.6562C104.969 38.6562 104.883 38.6797 104.82 38.7266C104.617 38.8516 104.422 38.9219 104.234 38.9375C104.047 38.9531 103.844 38.9609 103.625 38.9609C103.5 38.9609 103.328 38.9062 103.109 38.7969C102.906 38.6719 102.797 38.5469 102.781 38.4219L102.945 38.2578C102.773 38.3203 102.656 38.3906 102.594 38.4688C102.531 38.5469 102.484 38.6328 102.453 38.7266C102.438 38.8203 102.422 38.9219 102.406 39.0312C102.391 39.1406 102.352 39.25 102.289 39.3594C102.211 39.5156 102.086 39.6094 101.914 39.6406C101.758 39.6719 101.594 39.7422 101.422 39.8516C101.266 39.9609 101.125 40.1641 101 40.4609C100.875 40.7422 100.812 41.2188 100.812 41.8906C100.812 42.1875 100.828 42.4766 100.859 42.7578C100.891 43.0391 100.906 43.3203 100.906 43.6016C100.906 44.1641 100.859 44.7266 100.766 45.2891C100.672 45.8359 100.625 46.3984 100.625 46.9766C100.625 47.3203 100.57 47.6484 100.461 47.9609C100.367 48.2734 100.32 48.6016 100.32 48.9453C100.32 49.4297 100.523 49.7656 100.93 49.9531C100.82 50 100.734 50.125 100.672 50.3281C100.609 50.5156 100.555 50.7344 100.508 50.9844C100.477 51.2188 100.453 51.4531 100.438 51.6875C100.438 51.9062 100.438 52.0625 100.438 52.1562C100.438 52.2188 100.438 52.3047 100.438 52.4141C100.438 52.5234 100.445 52.6406 100.461 52.7656C100.477 52.875 100.492 52.9844 100.508 53.0938C100.523 53.1875 100.555 53.2578 100.602 53.3047C100.727 53.4297 100.789 53.5859 100.789 53.7734C100.789 53.9609 100.758 54.1484 100.695 54.3359C100.633 54.5078 100.602 54.6875 100.602 54.875C100.602 55.6406 100.648 56.4062 100.742 57.1719C100.852 57.9219 100.906 58.6797 100.906 59.4453C100.906 59.9453 100.852 60.4453 100.742 60.9453C100.648 61.4453 100.602 61.9453 100.602 62.4453C100.602 62.8984 100.68 63.2578 100.836 63.5234C100.992 63.7891 101.203 63.9922 101.469 64.1328C101.734 64.2734 102.039 64.3672 102.383 64.4141C102.727 64.4609 103.086 64.4844 103.461 64.4844C104.055 64.4844 104.641 64.4375 105.219 64.3438C105.812 64.2344 106.398 64.1797 106.977 64.1797C107.555 64.1797 108 64.3594 108.312 64.7188C108.641 65.0781 108.805 65.5391 108.805 66.1016C108.805 66.5234 108.734 66.9219 108.594 67.2969C108.469 67.6562 108.281 67.9688 108.031 68.2344C107.797 68.5156 107.508 68.7344 107.164 68.8906C106.82 69.0469 106.43 69.125 105.992 69.125C105.68 69.125 105.328 69.0859 104.938 69.0078C104.312 68.8828 103.688 68.7891 103.062 68.7266C102.438 68.6797 101.797 68.6562 101.141 68.6562C100.594 68.6562 100.047 68.6641 99.5 68.6797C98.9531 68.7109 98.4062 68.7266 97.8594 68.7266C97.2031 68.7266 96.5547 68.7188 95.9141 68.7031C95.2734 68.6875 94.625 68.6797 93.9688 68.6797C93.7344 68.6797 93.5078 68.6406 93.2891 68.5625C93.0703 68.4844 92.8516 68.4453 92.6328 68.4453C92.4766 68.4453 92.2969 68.4688 92.0938 68.5156C91.8906 68.5781 91.6719 68.6406 91.4375 68.7031C91.2188 68.7656 90.9844 68.8203 90.7344 68.8672C90.4844 68.9297 90.2344 68.9609 89.9844 68.9609C89.4062 68.9609 88.9062 68.8281 88.4844 68.5625C88.0625 68.3125 87.8516 67.8672 87.8516 67.2266C87.8516 67.0234 87.875 66.8281 87.9219 66.6406C87.9375 66.5 88.0078 66.3047 88.1328 66.0547C88.2734 65.8047 88.4297 65.5625 88.6016 65.3281C88.7891 65.0781 88.9766 64.8672 89.1641 64.6953C89.3672 64.5234 89.5469 64.4375 89.7031 64.4375C89.8281 64.4375 89.9453 64.4688 90.0547 64.5312C90.1797 64.5938 90.3125 64.6719 90.4531 64.7656C90.6094 64.8438 90.7891 64.9141 90.9922 64.9766C91.1953 65.0391 91.4375 65.0703 91.7188 65.0703C92.2812 65.0703 92.8672 65.0156 93.4766 64.9062C94.0859 64.7969 94.6406 64.6094 95.1406 64.3438C95.6562 64.0625 96.0781 63.7031 96.4062 63.2656C96.7344 62.8125 96.8984 62.25 96.8984 61.5781C96.8984 61.3281 96.8828 61.0859 96.8516 60.8516C96.8203 60.6016 96.7891 60.3516 96.7578 60.1016C96.6641 59.2891 96.6094 58.4688 96.5938 57.6406C96.5781 56.8125 96.5703 55.9844 96.5703 55.1562C96.5703 54.6094 96.6406 54.0859 96.7812 53.5859C96.9219 53.0703 96.9922 52.5391 96.9922 51.9922C96.9922 51.6797 96.9375 51.3828 96.8281 51.1016C96.7188 50.8203 96.6641 50.5312 96.6641 50.2344C96.6641 50.0938 96.6797 49.9531 96.7109 49.8125C96.7578 49.6719 96.7812 49.5234 96.7812 49.3672C96.7812 49.0234 96.7422 48.6953 96.6641 48.3828C96.6016 48.0547 96.5703 47.7266 96.5703 47.3984C96.5703 46.8516 96.625 46.3047 96.7344 45.7578C96.8594 45.2109 96.9219 44.6641 96.9219 44.1172C96.9219 43.7891 96.8828 43.4609 96.8047 43.1328C96.7266 42.8047 96.6406 42.4844 96.5469 42.1719C96.4688 41.8594 96.3906 41.5391 96.3125 41.2109C96.2344 40.8828 96.1953 40.5547 96.1953 40.2266C96.1953 40.0234 96.2188 39.8125 96.2656 39.5938C96.1719 39.375 96.0391 39.2031 95.8672 39.0781C95.6953 38.9531 95.5078 38.8359 95.3047 38.7266C95.1016 38.6172 94.8984 38.5078 94.6953 38.3984C94.5078 38.2891 94.3594 38.1328 94.25 37.9297C94.125 37.9453 94.0469 38.0078 94.0156 38.1172C93.9844 38.2109 93.9609 38.3203 93.9453 38.4453C93.9297 38.5547 93.8984 38.6641 93.8516 38.7734C93.8203 38.8672 93.7344 38.9219 93.5938 38.9375C93.1562 38.9844 92.7109 39.0234 92.2578 39.0547C91.8203 39.0859 91.3828 39.1016 90.9453 39.1016C90.6953 39.1016 90.3828 39.0859 90.0078 39.0547C89.6484 39.0234 89.2969 38.9531 88.9531 38.8438C88.625 38.7344 88.3438 38.5781 88.1094 38.375C87.875 38.1719 87.7578 37.8906 87.7578 37.5312C87.7578 37.3125 87.8047 37.0859 87.8984 36.8516C88.0078 36.6016 88.1328 36.3594 88.2734 36.125C88.4297 35.8906 88.5938 35.6719 88.7656 35.4688C88.9531 35.25 89.1172 35.0625 89.2578 34.9062C89.3672 34.7969 89.5312 34.7031 89.75 34.625C89.9688 34.5469 90.2109 34.4922 90.4766 34.4609C90.7578 34.4297 91.0547 34.4062 91.3672 34.3906C91.6797 34.375 91.9922 34.3672 92.3047 34.3672C92.6953 34.3672 93.0547 34.375 93.3828 34.3906C93.7266 34.3906 94.0078 34.3906 94.2266 34.3906C94.6172 34.3906 95.0938 34.3828 95.6562 34.3672C96.2344 34.3359 96.7812 34.2969 97.2969 34.25C97.8281 34.2031 98.2812 34.1562 98.6562 34.1094C99.0469 34.0469 99.25 33.9844 99.2656 33.9219C99.3594 33.9688 99.4688 34.0469 99.5938 34.1562C99.7344 34.25 99.875 34.3438 100.016 34.4375C100.172 34.5312 100.32 34.6172 100.461 34.6953C100.602 34.7734 100.711 34.8125 100.789 34.8125C100.883 34.8125 100.953 34.7812 101 34.7188C101.062 34.6406 101.109 34.5547 101.141 34.4609C101.188 34.3672 101.219 34.2734 101.234 34.1797C101.25 34.0703 101.258 33.9844 101.258 33.9219H101.422C101.766 33.9219 101.992 34.0234 102.102 34.2266C102.227 34.4297 102.289 34.6719 102.289 34.9531C102.289 35.0156 102.281 35.0703 102.266 35.1172C102.266 35.1641 102.266 35.2109 102.266 35.2578C102.422 35.2266 102.531 35.1562 102.594 35.0469C102.672 34.9219 102.734 34.7969 102.781 34.6719C102.828 34.5469 102.883 34.4375 102.945 34.3438C103.023 34.25 103.148 34.2031 103.32 34.2031C103.383 34.2031 103.477 34.2188 103.602 34.25H103.766C104.109 34.5312 104.375 34.75 104.562 34.9062C104.766 35.0625 104.922 35.1797 105.031 35.2578C105.141 35.3203 105.211 35.3594 105.242 35.375C105.273 35.3906 105.297 35.3984 105.312 35.3984C105.344 35.3984 105.398 35.4062 105.477 35.4219C105.57 35.4375 105.617 35.4375 105.617 35.4219C105.617 35.3594 105.578 35.3047 105.5 35.2578C105.438 35.1953 105.359 35.1328 105.266 35.0703C105.188 35.0078 105.109 34.9375 105.031 34.8594C104.969 34.7812 104.938 34.6953 104.938 34.6016C105.125 34.6016 105.273 34.5781 105.383 34.5312C105.492 34.4688 105.586 34.4062 105.664 34.3438C105.742 34.2656 105.82 34.1953 105.898 34.1328C105.992 34.0703 106.109 34.0391 106.25 34.0391C106.453 34.0391 106.609 34.0703 106.719 34.1328C106.828 34.1953 106.922 34.2656 107 34.3438C107.078 34.4062 107.148 34.4688 107.211 34.5312C107.273 34.5938 107.359 34.625 107.469 34.625C107.547 34.625 107.609 34.6172 107.656 34.6016C107.719 34.5859 107.789 34.5781 107.867 34.5781C107.977 34.5781 108.047 34.625 108.078 34.7188C108.109 34.8125 108.133 34.8984 108.148 34.9766C108.195 35.2109 108.234 35.3906 108.266 35.5156C108.297 35.6406 108.336 35.75 108.383 35.8438C108.43 35.9375 108.484 36.0391 108.547 36.1484C108.625 36.2422 108.727 36.3828 108.852 36.5703C108.945 36.6953 108.992 36.8281 108.992 36.9688ZM97.25 38.5156C97.3438 38.3906 97.3203 38.25 97.1797 38.0938C97.0391 37.9375 96.8828 37.8594 96.7109 37.8594C96.5234 37.8594 96.3984 37.9531 96.3359 38.1406C96.2891 38.3125 96.2656 38.4688 96.2656 38.6094C96.2969 38.7188 96.3438 38.8047 96.4062 38.8672C96.4531 38.9297 96.5078 38.9844 96.5703 39.0312C96.6328 39.0781 96.7031 39.1016 96.7812 39.1016C96.9062 39.1016 97 39.0781 97.0625 39.0312C97.125 38.9688 97.1719 38.8984 97.2031 38.8203C97.2344 38.7422 97.25 38.6406 97.25 38.5156ZM137.328 43.5312C137.328 43.8125 137.32 44.1016 137.305 44.3984C137.305 44.6797 137.273 44.9531 137.211 45.2188C137.18 45.3594 137.109 45.5156 137 45.6875C136.891 45.8438 136.758 46 136.602 46.1562C136.461 46.2969 136.305 46.4219 136.133 46.5312C135.961 46.625 135.805 46.6719 135.664 46.6719C135.43 46.6719 135.281 46.5781 135.219 46.3906C135.156 46.2031 135.109 46 135.078 45.7812C135.062 45.5625 135.016 45.3594 134.938 45.1719C134.875 44.9844 134.719 44.8906 134.469 44.8906C134.391 44.8906 134.32 44.9062 134.258 44.9375C134.211 44.9688 134.148 44.9844 134.07 44.9844C134.039 44.9844 134.008 44.8906 133.977 44.7031C133.945 44.5156 133.906 44.2891 133.859 44.0234C133.812 43.7578 133.758 43.4922 133.695 43.2266C133.633 42.9453 133.562 42.7109 133.484 42.5234C133.344 42.2266 133.195 41.9219 133.039 41.6094C132.898 41.2812 132.828 40.9375 132.828 40.5781C132.828 40.3281 132.875 40.1172 132.969 39.9453C133.062 39.7578 133.164 39.5859 133.273 39.4297C133.383 39.2734 133.484 39.1172 133.578 38.9609C133.672 38.8047 133.719 38.6172 133.719 38.3984C133.719 38.0859 133.617 37.8125 133.414 37.5781C133.211 37.3438 132.953 37.1562 132.641 37.0156C132.344 36.8594 132.023 36.75 131.68 36.6875C131.352 36.6094 131.062 36.5703 130.812 36.5703C130.391 36.5703 129.977 36.625 129.57 36.7344C129.18 36.8281 128.781 36.9453 128.375 37.0859C127.984 37.2266 127.594 37.375 127.203 37.5312C126.812 37.6875 126.422 37.8203 126.031 37.9297C126.109 38.1484 126.156 38.375 126.172 38.6094C126.203 38.8438 126.219 39.0781 126.219 39.3125C126.219 39.8438 126.195 40.375 126.148 40.9062C126.102 41.4219 126.078 41.9453 126.078 42.4766C126.078 43.0547 126.109 43.6328 126.172 44.2109C126.234 44.7734 126.297 45.3359 126.359 45.8984C126.438 46.4609 126.508 47.0312 126.57 47.6094C126.633 48.1719 126.664 48.7344 126.664 49.2969C126.664 49.9844 126.547 50.6562 126.312 51.3125C126.266 51.4375 126.242 51.5391 126.242 51.6172C126.242 51.7891 126.281 51.9609 126.359 52.1328C126.438 52.2891 126.523 52.4609 126.617 52.6484C126.727 52.8203 126.82 53 126.898 53.1875C126.977 53.375 127.016 53.5703 127.016 53.7734C127.016 53.9609 126.984 54.1406 126.922 54.3125C126.859 54.4844 126.828 54.6562 126.828 54.8281C126.828 55.0781 126.859 55.3203 126.922 55.5547C127 55.7891 127.039 56.0312 127.039 56.2812C127.039 56.4219 127 56.5078 126.922 56.5391C126.859 56.5703 126.781 56.5859 126.688 56.5859C126.594 56.5859 126.508 56.5938 126.43 56.6094C126.367 56.6094 126.336 56.6484 126.336 56.7266C126.336 56.9609 126.383 57.1875 126.477 57.4062C126.586 57.6094 126.641 57.8281 126.641 58.0625C126.641 58.2656 126.594 58.4609 126.5 58.6484C126.422 58.8203 126.383 59.0078 126.383 59.2109C126.383 59.4141 126.469 59.5938 126.641 59.75C126.828 59.9062 126.961 60.0938 127.039 60.3125C127.117 60.5781 127.18 60.8828 127.227 61.2266C127.289 61.5703 127.398 61.8984 127.555 62.2109C127.727 62.5234 127.984 62.7891 128.328 63.0078C128.672 63.2109 129.18 63.3125 129.852 63.3125H130.531C130.719 63.3125 130.945 63.3281 131.211 63.3594C131.492 63.3906 131.758 63.4531 132.008 63.5469C132.273 63.625 132.492 63.75 132.664 63.9219C132.852 64.0781 132.945 64.2812 132.945 64.5312C132.945 64.7812 132.898 65.0234 132.805 65.2578C132.711 65.4922 132.664 65.7344 132.664 65.9844C132.664 66.0625 132.68 66.1797 132.711 66.3359C132.477 66.3359 132.266 66.3906 132.078 66.5C131.906 66.5938 131.781 66.7578 131.703 66.9922C131.391 66.9297 131.07 66.8906 130.742 66.875C130.43 66.8438 130.117 66.8281 129.805 66.8281C129.008 66.8281 128.219 66.8906 127.438 67.0156C126.656 67.125 125.867 67.25 125.07 67.3906C124.289 67.5156 123.5 67.6406 122.703 67.7656C121.922 67.875 121.133 67.9297 120.336 67.9297C120.07 67.9297 119.742 67.9219 119.352 67.9062C118.961 67.8906 118.586 67.8359 118.227 67.7422C117.867 67.6484 117.555 67.5078 117.289 67.3203C117.039 67.1172 116.914 66.8281 116.914 66.4531C116.914 66.0156 116.953 65.6953 117.031 65.4922C117.125 65.2734 117.234 65.125 117.359 65.0469C117.484 64.9531 117.625 64.8984 117.781 64.8828C117.953 64.8672 118.117 64.8359 118.273 64.7891C118.32 64.7422 118.344 64.6953 118.344 64.6484C118.344 64.5703 118.305 64.5078 118.227 64.4609C118.164 64.3984 118.094 64.3516 118.016 64.3203C118.281 64.0859 118.578 63.9219 118.906 63.8281C119.25 63.7344 119.594 63.6719 119.938 63.6406C120.297 63.6094 120.656 63.5781 121.016 63.5469C121.375 63.5156 121.711 63.4375 122.023 63.3125C122.148 63.2656 122.281 63.1328 122.422 62.9141C122.562 62.6953 122.688 62.4531 122.797 62.1875C122.922 61.9219 123.016 61.6562 123.078 61.3906C123.156 61.125 123.195 60.9219 123.195 60.7812V60.7344C123.086 59.9844 123 59.25 122.938 58.5312C122.875 57.8125 122.844 57.0781 122.844 56.3281C122.844 56.2656 122.867 56.1641 122.914 56.0234C122.961 55.8672 123.023 55.7109 123.102 55.5547C123.164 55.3828 123.25 55.1875 123.359 54.9688C123.234 54.7656 123.125 54.5781 123.031 54.4062C122.953 54.25 122.883 54.1016 122.82 53.9609C122.758 53.8203 122.727 53.7109 122.727 53.6328C122.727 53.4453 122.758 53.2656 122.82 53.0938C122.883 52.9219 122.93 52.75 122.961 52.5781C123.055 51.9219 123.102 51.2578 123.102 50.5859C123.102 50.3047 123.078 50.0312 123.031 49.7656C123 49.4844 122.953 49.2109 122.891 48.9453C122.688 47.9922 122.586 47.0078 122.586 45.9922C122.586 44.8047 122.664 43.625 122.82 42.4531C122.977 41.2812 123.055 40.1016 123.055 38.9141C123.055 38.5078 122.984 38.1953 122.844 37.9766C122.703 37.7422 122.43 37.5625 122.023 37.4375C121.477 37.2812 120.906 37.1562 120.312 37.0625C119.734 36.9688 119.156 36.9219 118.578 36.9219C118.141 36.9219 117.68 36.9766 117.195 37.0859C116.727 37.1797 116.289 37.3438 115.883 37.5781C115.492 37.7969 115.164 38.0938 114.898 38.4688C114.648 38.8281 114.523 39.2656 114.523 39.7812C114.523 40.0469 114.539 40.3047 114.57 40.5547C114.602 40.8047 114.617 41.0625 114.617 41.3281C114.617 41.5781 114.562 41.7969 114.453 41.9844C114.359 42.1562 114.312 42.3281 114.312 42.5C114.312 42.7344 114.375 42.9531 114.5 43.1562C114.625 43.3594 114.688 43.5781 114.688 43.8125C114.688 43.9688 114.648 44.1406 114.57 44.3281C114.508 44.5156 114.43 44.7109 114.336 44.9141C114.242 45.1016 114.148 45.2891 114.055 45.4766C113.977 45.6641 113.914 45.8359 113.867 45.9922C113.789 46.2266 113.688 46.4297 113.562 46.6016C113.438 46.7734 113.242 46.8594 112.977 46.8594C112.758 46.8594 112.555 46.7891 112.367 46.6484C112.18 46.4922 112.086 46.3047 112.086 46.0859C112.086 45.9141 112.125 45.7812 112.203 45.6875C112.297 45.5781 112.344 45.4531 112.344 45.3125C112.344 45.1562 112.312 45 112.25 44.8438C112.188 44.6719 112.109 44.5078 112.016 44.3516C111.938 44.1797 111.867 44.0078 111.805 43.8359C111.742 43.6641 111.711 43.4922 111.711 43.3203C111.711 43.1016 111.742 42.8906 111.805 42.6875C111.883 42.4844 111.922 42.2734 111.922 42.0547C111.922 41.5859 111.844 41.125 111.688 40.6719C111.547 40.2188 111.477 39.7578 111.477 39.2891C111.477 38.8672 111.523 38.3672 111.617 37.7891C111.711 37.2109 111.867 36.6562 112.086 36.125C112.32 35.5938 112.617 35.1484 112.977 34.7891C113.352 34.4141 113.82 34.2266 114.383 34.2266C114.773 34.2266 115.156 34.2734 115.531 34.3672C115.922 34.4453 116.32 34.4844 116.727 34.4844C117.18 34.4844 117.633 34.4453 118.086 34.3672C118.539 34.2891 118.992 34.25 119.445 34.25C119.758 34.25 120.047 34.3047 120.312 34.4141C120.594 34.5078 120.891 34.5547 121.203 34.5547C121.391 34.5547 121.547 34.5156 121.672 34.4375C121.812 34.3438 121.969 34.2969 122.141 34.2969C122.328 34.2969 122.508 34.3438 122.68 34.4375C122.867 34.5156 123.055 34.5547 123.242 34.5547C123.414 34.5547 123.57 34.5312 123.711 34.4844C123.867 34.4375 124.023 34.4141 124.18 34.4141C124.414 34.4141 124.641 34.4453 124.859 34.5078C125.094 34.5703 125.32 34.6016 125.539 34.6016L128.375 34.25C128.797 34.2188 129.219 34.1875 129.641 34.1562C130.062 34.125 130.492 34.1094 130.93 34.1094C131.68 34.1094 132.422 34.1719 133.156 34.2969C133.906 34.4062 134.656 34.5469 135.406 34.7188V34.7422C135.922 34.8672 136.289 35.1328 136.508 35.5391C136.727 35.9453 136.867 36.4141 136.93 36.9453C137.008 37.4609 137.039 37.9922 137.023 38.5391C137.008 39.0859 137.016 39.5547 137.047 39.9453C137.094 40.5391 137.148 41.1406 137.211 41.75C137.289 42.3438 137.328 42.9375 137.328 43.5312ZM168.641 66.6875C168.641 66.9219 168.523 67.1172 168.289 67.2734C168.07 67.4297 167.781 67.5547 167.422 67.6484C167.078 67.7422 166.695 67.8203 166.273 67.8828C165.852 67.9297 165.43 67.9688 165.008 68C164.602 68.0156 164.227 68.0234 163.883 68.0234C163.555 68.0234 163.305 68.0234 163.133 68.0234C162.727 68.0234 162.359 68.0703 162.031 68.1641C161.703 68.2578 161.391 68.3594 161.094 68.4688C160.812 68.5781 160.547 68.6797 160.297 68.7734C160.047 68.8672 159.797 68.9141 159.547 68.9141C159.328 68.9141 159.141 68.8438 158.984 68.7031C158.844 68.5625 158.664 68.4922 158.445 68.4922C158.195 68.4922 157.961 68.4375 157.742 68.3281C157.523 68.2188 157.328 68.0781 157.156 67.9062C156.984 67.7188 156.844 67.5078 156.734 67.2734C156.641 67.0391 156.594 66.8047 156.594 66.5703C156.594 66.2734 156.664 66.0234 156.805 65.8203C156.961 65.6172 157.156 65.4531 157.391 65.3281C157.625 65.1875 157.875 65.0938 158.141 65.0469C158.422 64.9844 158.688 64.9531 158.938 64.9531C159.156 64.9531 159.367 64.9844 159.57 65.0469C159.773 65.0938 159.961 65.1875 160.133 65.3281C160.148 65.0938 160.211 64.8984 160.32 64.7422C160.43 64.5703 160.547 64.4141 160.672 64.2734C160.797 64.1172 160.906 63.9531 161 63.7812C161.109 63.6094 161.164 63.3984 161.164 63.1484C161.164 62.7422 161.141 62.3359 161.094 61.9297C161.047 61.5078 161.023 61.0938 161.023 60.6875C161.023 60.4219 161.047 60.1562 161.094 59.8906C161.156 59.625 161.188 59.3516 161.188 59.0703C161.188 58.7578 161.164 58.4375 161.117 58.1094C161.086 57.7812 161.07 57.4531 161.07 57.125C161.07 56.8125 161.117 56.5547 161.211 56.3516C161.305 56.1484 161.352 55.9609 161.352 55.7891C161.352 55.4609 161.297 55.1328 161.188 54.8047C161.078 54.4609 160.93 54.1562 160.742 53.8906C160.555 53.6094 160.336 53.375 160.086 53.1875C159.836 52.9844 159.578 52.8594 159.312 52.8125C158.531 52.6719 157.75 52.6016 156.969 52.6016C156.75 52.6016 156.547 52.6406 156.359 52.7188C156.172 52.7812 156.023 52.8125 155.914 52.8125C155.82 52.8125 155.711 52.7812 155.586 52.7188C155.461 52.6406 155.375 52.6016 155.328 52.6016C155.125 52.6016 154.914 52.6406 154.695 52.7188C154.492 52.7812 154.281 52.8516 154.062 52.9297C153.844 53.0078 153.625 53.0859 153.406 53.1641C153.188 53.2266 152.977 53.2578 152.773 53.2578C152.43 53.2578 152.07 53.2656 151.695 53.2812C151.336 53.2812 150.977 53.3125 150.617 53.375C150.273 53.4219 149.938 53.5234 149.609 53.6797C149.297 53.8203 149.016 54.0312 148.766 54.3125V54.4766C148.766 54.7891 148.773 55.0938 148.789 55.3906C148.805 55.6719 148.812 55.9688 148.812 56.2812C148.812 56.6406 148.789 56.9766 148.742 57.2891C148.695 57.6016 148.586 57.9219 148.414 58.25C148.367 58.375 148.344 58.4844 148.344 58.5781C148.344 58.8281 148.391 59.0703 148.484 59.3047C148.578 59.5234 148.625 59.7578 148.625 60.0078C148.625 60.1172 148.586 60.2344 148.508 60.3594C148.43 60.4844 148.391 60.6172 148.391 60.7578C148.391 60.9766 148.422 61.1875 148.484 61.3906C148.562 61.5938 148.648 61.8047 148.742 62.0234C148.836 62.2266 148.922 62.4297 149 62.6328C149.078 62.8359 149.133 63.0469 149.164 63.2656C149.211 63.7188 149.367 64.0625 149.633 64.2969C149.914 64.5156 150.234 64.6953 150.594 64.8359C150.953 64.9609 151.328 65.0781 151.719 65.1875C152.125 65.2969 152.477 65.4531 152.773 65.6562C152.742 65.8125 152.727 65.9297 152.727 66.0078C152.727 66.2734 152.773 66.5234 152.867 66.7578C152.961 66.9922 153.008 67.2422 153.008 67.5078C153.008 67.7734 152.906 67.9844 152.703 68.1406C152.516 68.2969 152.281 68.4062 152 68.4688C151.719 68.5469 151.43 68.5938 151.133 68.6094C150.852 68.625 150.617 68.6328 150.43 68.6328C150.398 68.6328 150.336 68.6172 150.242 68.5859C150.148 68.5703 150.047 68.5391 149.938 68.4922C149.844 68.4609 149.75 68.4297 149.656 68.3984C149.562 68.3672 149.492 68.3438 149.445 68.3281C148.57 68.5 147.68 68.6094 146.773 68.6562C145.867 68.7031 144.969 68.7266 144.078 68.7266C143.844 68.7266 143.539 68.7031 143.164 68.6562C142.789 68.625 142.414 68.5469 142.039 68.4219C141.68 68.3125 141.367 68.1562 141.102 67.9531C140.852 67.7344 140.727 67.4531 140.727 67.1094C140.727 66.9531 140.75 66.7734 140.797 66.5703C140.844 66.3516 140.914 66.1406 141.008 65.9375C141.102 65.7344 141.211 65.5469 141.336 65.375C141.461 65.2031 141.602 65.0781 141.758 65C142.102 64.8438 142.484 64.7266 142.906 64.6484C143.344 64.5547 143.75 64.4141 144.125 64.2266C144.516 64.0234 144.844 63.7188 145.109 63.3125C145.375 62.9062 145.508 62.2969 145.508 61.4844C145.508 61.0781 145.492 60.6797 145.461 60.2891C145.43 59.8984 145.414 59.5 145.414 59.0938C145.414 58.875 145.422 58.6562 145.438 58.4375C145.453 58.2031 145.461 57.9766 145.461 57.7578C145.461 57.0859 145.422 56.4219 145.344 55.7656C145.281 55.0938 145.25 54.4219 145.25 53.75C145.25 53.4688 145.273 53.1875 145.32 52.9062C145.367 52.6094 145.391 52.3281 145.391 52.0625C145.391 51.6719 145.336 51.2891 145.227 50.9141C145.117 50.5391 145.062 50.1641 145.062 49.7891C145.062 49.7109 145.07 49.6562 145.086 49.625C145.148 49.5469 145.203 49.3906 145.25 49.1562C145.297 48.9062 145.336 48.6406 145.367 48.3594C145.414 48.0781 145.445 47.8125 145.461 47.5625C145.492 47.3125 145.508 47.125 145.508 47C145.508 46.625 145.469 46.2578 145.391 45.8984C145.328 45.5234 145.297 45.1484 145.297 44.7734C145.297 44.5547 145.312 44.3359 145.344 44.1172C145.391 43.8828 145.414 43.6562 145.414 43.4375C145.414 43.3438 145.398 43.2891 145.367 43.2734C145.336 43.2422 145.297 43.2188 145.25 43.2031C145.203 43.1875 145.164 43.1641 145.133 43.1328C145.102 43.0859 145.086 42.9922 145.086 42.8516C145.086 42.7266 145.156 42.5703 145.297 42.3828C145.438 42.1797 145.508 41.9922 145.508 41.8203C145.508 41.6797 145.461 41.4844 145.367 41.2344C145.273 40.9688 145.148 40.7031 144.992 40.4375C144.852 40.1719 144.695 39.9297 144.523 39.7109C144.367 39.4922 144.219 39.3438 144.078 39.2656C143.781 39.125 143.438 39.0234 143.047 38.9609C142.672 38.8828 142.312 38.7891 141.969 38.6797C141.625 38.5547 141.336 38.375 141.102 38.1406C140.867 37.9062 140.75 37.5547 140.75 37.0859C140.75 36.6641 140.867 36.3203 141.102 36.0547C141.336 35.7734 141.625 35.5469 141.969 35.375C142.328 35.2031 142.711 35.0859 143.117 35.0234C143.523 34.9453 143.891 34.9062 144.219 34.9062C144.453 34.9062 144.711 34.9219 144.992 34.9531C145.289 34.9688 145.578 35.0078 145.859 35.0703C146.156 35.1328 146.438 35.2109 146.703 35.3047C146.984 35.3828 147.227 35.4766 147.43 35.5859C147.805 35.4609 148.188 35.3594 148.578 35.2812C148.969 35.2031 149.367 35.1641 149.773 35.1641C150.008 35.1641 150.258 35.1875 150.523 35.2344C150.805 35.2812 151.055 35.375 151.273 35.5156C151.508 35.6562 151.695 35.8516 151.836 36.1016C151.992 36.3359 152.07 36.6484 152.07 37.0391C152.07 37.2109 152.047 37.3516 152 37.4609C151.953 37.5547 151.875 37.6016 151.766 37.6016C151.344 37.6016 150.914 37.7031 150.477 37.9062C150.055 38.0938 149.664 38.3516 149.305 38.6797C148.945 39.0078 148.648 39.3828 148.414 39.8047C148.195 40.2109 148.086 40.625 148.086 41.0469C148.086 41.25 148.109 41.4453 148.156 41.6328C148.297 42.1172 148.414 42.5938 148.508 43.0625C148.602 43.5312 148.648 44.0156 148.648 44.5156C148.648 44.9375 148.617 45.3594 148.555 45.7812C148.492 46.1875 148.461 46.6016 148.461 47.0234C148.461 47.5703 148.586 48.0156 148.836 48.3594C149.102 48.6875 149.438 48.9453 149.844 49.1328C150.25 49.3203 150.688 49.4453 151.156 49.5078C151.641 49.5703 152.109 49.6016 152.562 49.6016C153.016 49.6016 153.469 49.5859 153.922 49.5547C154.375 49.5078 154.836 49.4844 155.305 49.4844C155.773 49.4844 156.234 49.5469 156.688 49.6719C157.141 49.7812 157.602 49.8359 158.07 49.8359C158.242 49.8359 158.414 49.8281 158.586 49.8125C158.758 49.7812 158.906 49.7266 159.031 49.6484C159.078 49.6172 159.148 49.5625 159.242 49.4844C159.352 49.4062 159.461 49.3359 159.57 49.2734C159.695 49.1953 159.805 49.125 159.898 49.0625C160.008 49 160.086 48.9688 160.133 48.9688C160.398 48.9219 160.602 48.7656 160.742 48.5C160.883 48.2344 160.984 47.9375 161.047 47.6094C161.125 47.2656 161.172 46.9219 161.188 46.5781C161.203 46.2188 161.211 45.9297 161.211 45.7109C161.211 45.4609 161.172 45.2188 161.094 44.9844C161.016 44.75 160.922 44.5234 160.812 44.3047C160.719 44.0703 160.633 43.8359 160.555 43.6016C160.477 43.3672 160.438 43.1172 160.438 42.8516C160.438 42.5391 160.461 42.2266 160.508 41.9141C160.57 41.5859 160.602 41.2656 160.602 40.9531C160.602 40.2969 160.477 39.8047 160.227 39.4766C159.992 39.1484 159.695 38.9062 159.336 38.75C158.977 38.5938 158.578 38.4922 158.141 38.4453C157.719 38.3984 157.328 38.3281 156.969 38.2344C156.609 38.125 156.305 37.9609 156.055 37.7422C155.82 37.5234 155.703 37.1641 155.703 36.6641C155.703 36.3359 155.773 36.0781 155.914 35.8906C156.055 35.7031 156.234 35.5625 156.453 35.4688C156.688 35.3594 156.938 35.2891 157.203 35.2578C157.469 35.2266 157.727 35.2109 157.977 35.2109C158.477 35.2109 158.961 35.2422 159.43 35.3047C159.914 35.3672 160.406 35.3984 160.906 35.3984C161.375 35.3984 161.891 35.3516 162.453 35.2578C163.016 35.1641 163.586 35.1172 164.164 35.1172C164.477 35.1172 164.844 35.1406 165.266 35.1875C165.688 35.2188 166.094 35.2969 166.484 35.4219C166.875 35.5469 167.203 35.7344 167.469 35.9844C167.734 36.2344 167.867 36.5781 167.867 37.0156C167.867 37.3125 167.789 37.5547 167.633 37.7422C167.477 37.9141 167.281 38.0703 167.047 38.2109C166.812 38.3359 166.547 38.4453 166.25 38.5391C165.953 38.6328 165.664 38.7344 165.383 38.8438C165.102 38.9375 164.844 39.0547 164.609 39.1953C164.375 39.3203 164.203 39.4922 164.094 39.7109C163.984 39.8984 163.914 40.1094 163.883 40.3438C163.867 40.5781 163.859 40.8047 163.859 41.0234C163.859 41.4297 163.875 41.8281 163.906 42.2188C163.953 42.6094 163.977 43.0078 163.977 43.4141C163.977 44.8203 163.93 46.2188 163.836 47.6094C163.742 48.9844 163.695 50.3672 163.695 51.7578C163.695 52.2422 163.695 52.7266 163.695 53.2109C163.711 53.6797 163.742 54.1562 163.789 54.6406C163.82 55.0938 163.906 55.5391 164.047 55.9766C164.188 56.3984 164.258 56.8359 164.258 57.2891C164.258 57.5078 164.234 57.6797 164.188 57.8047C164.141 57.9297 164.086 58.0391 164.023 58.1328C163.977 58.2266 163.93 58.3125 163.883 58.3906C163.836 58.4688 163.812 58.5547 163.812 58.6484C163.812 58.9141 163.875 59.1719 164 59.4219C164.125 59.6719 164.188 59.9297 164.188 60.1953C164.188 60.5391 164.148 60.8828 164.07 61.2266C164.008 61.5703 163.977 61.9141 163.977 62.2578C163.977 62.2891 164 62.4141 164.047 62.6328C164.109 62.8359 164.172 63.0625 164.234 63.3125C164.312 63.5625 164.391 63.7969 164.469 64.0156C164.547 64.2344 164.609 64.3672 164.656 64.4141C164.844 64.6016 165.07 64.7422 165.336 64.8359C165.602 64.9297 165.883 65.0156 166.18 65.0938C166.477 65.1562 166.766 65.2266 167.047 65.3047C167.344 65.3828 167.602 65.5 167.82 65.6562C167.977 65.7656 168.148 65.9141 168.336 66.1016C168.539 66.2734 168.641 66.4688 168.641 66.6875ZM199.484 36.3125C199.484 36.5 199.414 36.6641 199.273 36.8047C199.133 36.9297 198.961 37.0391 198.758 37.1328C198.57 37.2266 198.375 37.3125 198.172 37.3906C197.969 37.4688 197.797 37.5391 197.656 37.6016C197.531 37.6641 197.422 37.7344 197.328 37.8125C197.25 37.8906 197.164 37.9766 197.07 38.0703C196.992 38.1484 196.898 38.2188 196.789 38.2812C196.695 38.3438 196.57 38.3984 196.414 38.4453C196.211 38.4922 196.031 38.5156 195.875 38.5156C195.719 38.5156 195.57 38.5312 195.43 38.5625C195.289 38.5781 195.164 38.6328 195.055 38.7266C194.945 38.8203 194.836 38.9844 194.727 39.2188C194.633 39.4219 194.562 39.6641 194.516 39.9453C194.484 40.2109 194.43 40.4688 194.352 40.7188C194.273 40.9688 194.156 41.1797 194 41.3516C193.859 41.5234 193.633 41.6094 193.32 41.6094C193.32 41.7812 193.375 41.9609 193.484 42.1484C193.609 42.3203 193.734 42.4922 193.859 42.6641C194 42.8359 194.125 43.0156 194.234 43.2031C194.344 43.375 194.398 43.5469 194.398 43.7188C194.398 43.9062 194.359 44.0859 194.281 44.2578C194.203 44.4297 194.164 44.6094 194.164 44.7969L194.141 46.2266C194.125 46.5391 194.18 46.8516 194.305 47.1641C194.445 47.4609 194.516 47.7734 194.516 48.1016C194.516 48.2891 194.477 48.4766 194.398 48.6641C194.32 48.8359 194.281 49.0234 194.281 49.2266C194.281 49.8828 194.344 50.5391 194.469 51.1953C194.609 51.8359 194.68 52.5 194.68 53.1875C194.68 53.6406 194.641 54.1328 194.562 54.6641C194.484 55.1797 194.297 55.6172 194 55.9766C194.016 56.1953 194.062 56.3828 194.141 56.5391C194.219 56.6797 194.297 56.8359 194.375 57.0078C194.453 57.1641 194.523 57.3438 194.586 57.5469C194.664 57.7344 194.703 57.9844 194.703 58.2969C194.703 58.5781 194.672 58.9531 194.609 59.4219C194.562 59.875 194.469 60.3203 194.328 60.7578C194.188 61.1797 193.992 61.5547 193.742 61.8828C193.508 62.1953 193.203 62.3516 192.828 62.3516C192.797 62.3516 192.766 62.3516 192.734 62.3516C192.719 62.3359 192.695 62.3281 192.664 62.3281L192.641 62.4688V62.5391C192.641 62.7578 192.703 62.9531 192.828 63.125C192.969 63.2969 193.039 63.4922 193.039 63.7109C193.039 63.8203 192.969 63.9609 192.828 64.1328C192.703 64.3047 192.547 64.4844 192.359 64.6719C192.172 64.8594 191.977 65.0391 191.773 65.2109C191.586 65.3828 191.43 65.5312 191.305 65.6562C191.164 65.7969 191.055 65.9375 190.977 66.0781C190.914 66.2031 190.844 66.3203 190.766 66.4297C190.703 66.5234 190.609 66.6094 190.484 66.6875C190.375 66.75 190.203 66.8047 189.969 66.8516C189.562 66.9297 189.203 67.0469 188.891 67.2031C188.578 67.3594 188.273 67.5234 187.977 67.6953C187.68 67.8516 187.359 67.9844 187.016 68.0938C186.672 68.2188 186.258 68.2812 185.773 68.2812C185.508 68.2812 185.25 68.25 185 68.1875C184.75 68.125 184.5 68.0547 184.25 67.9766C184 67.8828 183.742 67.8047 183.477 67.7422C183.227 67.6797 182.977 67.6484 182.727 67.6484C182.523 67.6484 182.32 67.6641 182.117 67.6953C181.93 67.7109 181.734 67.7188 181.531 67.7188C181.375 67.7188 181.25 67.7109 181.156 67.6953C181.078 67.6797 180.984 67.6172 180.875 67.5078C180.797 67.4141 180.672 67.3281 180.5 67.25C180.344 67.1719 180.172 67.1016 179.984 67.0391C179.797 66.9609 179.609 66.8984 179.422 66.8516C179.234 66.7891 179.078 66.7422 178.953 66.7109C178.672 66.6328 178.398 66.4766 178.133 66.2422C177.883 66.0078 177.648 65.7422 177.43 65.4453C177.227 65.1328 177.039 64.8125 176.867 64.4844C176.711 64.1562 176.586 63.8594 176.492 63.5938C176.305 63.0625 176.172 62.5234 176.094 61.9766C176.016 61.4141 175.953 60.8594 175.906 60.3125C175.859 59.75 175.805 59.1953 175.742 58.6484C175.695 58.0859 175.602 57.5312 175.461 56.9844C175.398 56.7656 175.328 56.5469 175.25 56.3281C175.188 56.0938 175.156 55.8594 175.156 55.625C175.156 55.4531 175.172 55.2891 175.203 55.1328C175.234 54.9609 175.266 54.7891 175.297 54.6172C175.422 53.9609 175.516 53.2969 175.578 52.625C175.656 51.9531 175.695 51.2812 175.695 50.6094C175.695 49.7188 175.648 48.8359 175.555 47.9609C175.477 47.0859 175.438 46.2031 175.438 45.3125C175.438 45.1406 175.438 44.9766 175.438 44.8203C175.438 44.6641 175.445 44.5 175.461 44.3281C175.492 44.0156 175.555 43.7109 175.648 43.4141C175.758 43.1172 175.812 42.8125 175.812 42.5C175.812 42.3906 175.797 42.2891 175.766 42.1953C175.734 42.1016 175.703 42 175.672 41.8906C175.484 41.4844 175.375 41.1172 175.344 40.7891C175.312 40.4453 175.281 40.0547 175.25 39.6172C175.188 38.9453 175.047 38.4688 174.828 38.1875C174.625 37.9062 174.359 37.7031 174.031 37.5781C173.719 37.4531 173.367 37.3516 172.977 37.2734C172.602 37.1797 172.203 36.9766 171.781 36.6641C171.656 36.5859 171.547 36.4922 171.453 36.3828C171.375 36.2578 171.336 36.125 171.336 35.9844C171.336 35.7344 171.469 35.5078 171.734 35.3047C172.016 35.1016 172.344 34.9375 172.719 34.8125C173.094 34.6875 173.469 34.5938 173.844 34.5312C174.219 34.4531 174.508 34.4141 174.711 34.4141C174.961 34.4141 175.195 34.4453 175.414 34.5078C175.648 34.5703 175.891 34.6016 176.141 34.6016C176.641 34.6016 177.125 34.5469 177.594 34.4375C178.062 34.3125 178.547 34.25 179.047 34.25C179.25 34.25 179.562 34.2891 179.984 34.3672C180.406 34.4453 180.828 34.5625 181.25 34.7188C181.672 34.8594 182.039 35.0391 182.352 35.2578C182.68 35.4609 182.844 35.6953 182.844 35.9609C182.844 36.3047 182.734 36.6328 182.516 36.9453C182.312 37.2422 182.055 37.5312 181.742 37.8125C181.43 38.0938 181.086 38.3828 180.711 38.6797C180.352 38.9766 180.016 39.2969 179.703 39.6406C179.391 39.9844 179.125 40.375 178.906 40.8125C178.703 41.2344 178.602 41.7109 178.602 42.2422C178.602 42.5547 178.609 42.875 178.625 43.2031C178.656 43.5156 178.672 43.8281 178.672 44.1406C178.672 44.7656 178.609 45.3828 178.484 45.9922C178.375 46.6016 178.32 47.2266 178.32 47.8672C178.32 48.3828 178.391 48.8516 178.531 49.2734C178.688 49.6797 178.766 50 178.766 50.2344C178.766 50.4844 178.734 50.7188 178.672 50.9375C178.625 51.1406 178.602 51.3594 178.602 51.5938C178.602 51.7031 178.602 51.8047 178.602 51.8984C178.617 51.9922 178.625 52.0938 178.625 52.2031C178.625 52.4531 178.586 52.6562 178.508 52.8125C178.445 52.9688 178.375 53.1094 178.297 53.2344C178.219 53.3594 178.141 53.4766 178.062 53.5859C177.984 53.6953 177.945 53.8203 177.945 53.9609C178.023 53.8984 178.102 53.8438 178.18 53.7969C178.258 53.75 178.344 53.7266 178.438 53.7266C178.547 53.7266 178.633 53.7656 178.695 53.8438C178.758 53.9219 178.805 54.0156 178.836 54.125C178.883 54.2188 178.914 54.3281 178.93 54.4531C178.945 54.5625 178.953 54.6562 178.953 54.7344C178.953 55.1406 179.008 55.5391 179.117 55.9297C179.242 56.3203 179.305 56.7188 179.305 57.125C179.305 57.4844 179.273 57.8516 179.211 58.2266C179.148 58.5859 179.117 58.9531 179.117 59.3281C179.117 59.6875 179.141 60.0234 179.188 60.3359C179.25 60.6328 179.461 60.875 179.82 61.0625C179.883 61.0938 179.953 61.1875 180.031 61.3438C180.109 61.5 180.188 61.6719 180.266 61.8594C180.359 62.0312 180.453 62.2109 180.547 62.3984C180.641 62.5703 180.734 62.6953 180.828 62.7734C181.016 62.9453 181.219 63.0859 181.438 63.1953C181.656 63.3047 181.875 63.4141 182.094 63.5234C182.328 63.6172 182.547 63.7266 182.75 63.8516C182.969 63.9609 183.164 64.1172 183.336 64.3203C183.477 64.4922 183.656 64.6484 183.875 64.7891C184.094 64.9141 184.305 65.0547 184.508 65.2109C184.727 65.3516 184.914 65.5078 185.07 65.6797C185.227 65.8516 185.305 66.0625 185.305 66.3125C185.305 66.1094 185.336 65.9453 185.398 65.8203C185.414 65.8672 185.422 65.9375 185.422 66.0312C185.422 66.1562 185.391 66.25 185.328 66.3125C185.375 66.2656 185.43 66.1875 185.492 66.0781C185.555 65.9688 185.617 65.8594 185.68 65.75C185.742 65.6406 185.805 65.5469 185.867 65.4688C185.93 65.3906 186 65.3516 186.078 65.3516C186.188 65.3516 186.289 65.3906 186.383 65.4688C186.477 65.5469 186.523 65.6484 186.523 65.7734C186.523 65.9297 186.492 66.0781 186.43 66.2188C186.367 66.3594 186.328 66.5078 186.312 66.6641C186.469 66.6641 186.625 66.6328 186.781 66.5703C186.953 66.4922 187.109 66.3984 187.25 66.2891C187.391 66.1797 187.5 66.0547 187.578 65.9141C187.672 65.7578 187.719 65.5938 187.719 65.4219C187.719 65.2188 187.656 65.0938 187.531 65.0469C187.422 64.9844 187.281 64.9531 187.109 64.9531C186.984 64.9531 186.859 64.9609 186.734 64.9766C186.625 64.9922 186.508 65 186.383 65H186.312C186.391 64.7656 186.508 64.5703 186.664 64.4141C186.82 64.2578 187 64.1328 187.203 64.0391C187.406 63.9297 187.617 63.8438 187.836 63.7812C188.055 63.7031 188.266 63.625 188.469 63.5469C188.797 63.4219 189.062 63.2578 189.266 63.0547C189.469 62.8359 189.656 62.6094 189.828 62.375C190 62.1406 190.172 61.9062 190.344 61.6719C190.516 61.4219 190.727 61.1953 190.977 60.9922C190.992 60.8828 191 60.7812 191 60.6875C191 60.5938 191 60.5 191 60.4062C191 60.0781 190.984 59.7578 190.953 59.4453C190.938 59.1172 190.93 58.7891 190.93 58.4609C190.93 58.1016 190.977 57.7422 191.07 57.3828C191.18 57.0234 191.234 56.6641 191.234 56.3047C191.234 55.9922 191.195 55.6953 191.117 55.4141C191.039 55.1172 191 54.8125 191 54.5C191 54.2188 191.039 53.9453 191.117 53.6797C191.195 53.3984 191.234 53.1172 191.234 52.8359C191.234 52.3828 191.195 51.9453 191.117 51.5234C191.039 51.0859 191 50.6484 191 50.2109C191 49.6172 191.047 49.0391 191.141 48.4766C191.25 47.9141 191.305 47.3438 191.305 46.7656C191.305 46.0156 191.234 45.2812 191.094 44.5625C190.969 43.8438 190.906 43.1094 190.906 42.3594C190.906 42.25 190.906 42.1094 190.906 41.9375C190.922 41.75 190.945 41.5703 190.977 41.3984C191.023 41.2109 191.086 41.0547 191.164 40.9297C191.242 40.7891 191.359 40.7188 191.516 40.7188C191.375 40.7031 191.195 40.6094 190.977 40.4375C190.773 40.25 190.57 40.0469 190.367 39.8281C190.18 39.5938 190.008 39.3672 189.852 39.1484C189.711 38.9141 189.641 38.7344 189.641 38.6094C189.562 38.625 189.484 38.6406 189.406 38.6562C189.344 38.6562 189.273 38.6562 189.195 38.6562C188.977 38.6562 188.766 38.6172 188.562 38.5391C188.375 38.4609 188.188 38.3828 188 38.3047C187.812 38.2109 187.617 38.125 187.414 38.0469C187.211 37.9688 186.992 37.9297 186.758 37.9297H186.641C186.578 37.5391 186.477 37.1641 186.336 36.8047C186.211 36.4453 186.148 36.0625 186.148 35.6562C186.148 35.3438 186.227 35.0938 186.383 34.9062C186.555 34.7188 186.766 34.5781 187.016 34.4844C187.266 34.375 187.531 34.3047 187.812 34.2734C188.109 34.2422 188.375 34.2266 188.609 34.2266C189.047 34.2266 189.477 34.25 189.898 34.2969C190.32 34.3438 190.75 34.3672 191.188 34.3672C191.516 34.3672 191.82 34.2969 192.102 34.1562C192.383 34 192.68 33.9219 192.992 33.9219C193.164 33.9219 193.344 33.9609 193.531 34.0391C193.719 34.1016 193.906 34.1797 194.094 34.2734C194.297 34.3672 194.5 34.4609 194.703 34.5547C194.906 34.6328 195.102 34.6875 195.289 34.7188C195.586 34.7656 195.898 34.7891 196.227 34.7891C196.57 34.7891 196.906 34.8047 197.234 34.8359C197.562 34.8672 197.875 34.9297 198.172 35.0234C198.469 35.1016 198.742 35.25 198.992 35.4688C199.117 35.5781 199.227 35.7031 199.32 35.8438C199.43 35.9844 199.484 36.1406 199.484 36.3125ZM226.695 58.2969C226.695 58.4062 226.695 58.5547 226.695 58.7422C226.711 58.9141 226.711 59.0938 226.695 59.2812C226.695 59.4531 226.68 59.6172 226.648 59.7734C226.633 59.9141 226.594 60.0156 226.531 60.0781C226.391 60.2188 226.242 60.3125 226.086 60.3594C225.93 60.3906 225.766 60.4141 225.594 60.4297C225.438 60.4297 225.273 60.4453 225.102 60.4766C224.945 60.4922 224.789 60.5469 224.633 60.6406C224.664 60.7969 224.734 60.8984 224.844 60.9453C224.969 60.9766 225.094 61.0078 225.219 61.0391C225.359 61.0547 225.477 61.1016 225.57 61.1797C225.68 61.2422 225.734 61.375 225.734 61.5781C225.734 61.9062 225.68 62.1797 225.57 62.3984C225.477 62.6016 225.359 62.7891 225.219 62.9609C225.078 63.1172 224.938 63.2812 224.797 63.4531C224.656 63.625 224.547 63.8438 224.469 64.1094C224.375 64.3906 224.258 64.5938 224.117 64.7188C223.977 64.8438 223.82 64.9453 223.648 65.0234C223.492 65.0859 223.328 65.1562 223.156 65.2344C222.984 65.3125 222.82 65.4531 222.664 65.6562C222.492 65.8438 222.352 65.9375 222.242 65.9375C222.195 65.9375 222.141 65.9297 222.078 65.9141C222.016 65.8984 221.938 65.8906 221.844 65.8906C221.766 65.8906 221.688 65.9219 221.609 65.9844C221.547 66.0312 221.516 66.0938 221.516 66.1719C221.516 66.2031 221.531 66.2188 221.562 66.2188C221.594 66.2188 221.602 66.2266 221.586 66.2422C221.398 66.4141 221.062 66.6172 220.578 66.8516C220.094 67.0703 219.539 67.2812 218.914 67.4844C218.289 67.6719 217.633 67.8359 216.945 67.9766C216.273 68.1016 215.633 68.1641 215.023 68.1641C213.961 68.1641 212.906 68.1328 211.859 68.0703C210.828 68.0234 209.773 68 208.695 68H205.578C205.531 68 205.461 68.0469 205.367 68.1406C205.289 68.2344 205.195 68.2812 205.086 68.2812C204.914 68.2812 204.688 68.2578 204.406 68.2109C204.141 68.1641 203.875 68.0859 203.609 67.9766C203.344 67.8672 203.109 67.7344 202.906 67.5781C202.719 67.4062 202.625 67.2109 202.625 66.9922C202.625 66.9141 202.633 66.8516 202.648 66.8047C202.664 66.7422 202.68 66.6719 202.695 66.5938C202.836 66.1562 203.031 65.8281 203.281 65.6094C203.531 65.375 203.797 65.1797 204.078 65.0234C204.375 64.8516 204.672 64.6797 204.969 64.5078C205.281 64.3359 205.555 64.0938 205.789 63.7812C206.039 63.4688 206.242 63.0469 206.398 62.5156C206.555 61.9844 206.633 61.2734 206.633 60.3828C206.633 59.5703 206.578 58.7656 206.469 57.9688C206.375 57.1719 206.328 56.3672 206.328 55.5547C206.344 54.0547 206.375 52.5703 206.422 51.1016C206.484 49.6328 206.523 48.1484 206.539 46.6484L206.562 42.9688C206.562 42.5781 206.547 42.125 206.516 41.6094C206.5 41.0938 206.422 40.6016 206.281 40.1328C206.156 39.6484 205.945 39.2422 205.648 38.9141C205.367 38.5703 204.961 38.375 204.43 38.3281C204.164 38.3125 203.859 38.2422 203.516 38.1172C203.172 37.9922 202.844 37.8281 202.531 37.625C202.234 37.4062 201.977 37.1641 201.758 36.8984C201.539 36.6328 201.43 36.3438 201.43 36.0312C201.43 35.7656 201.508 35.5469 201.664 35.375C201.82 35.1875 202.008 35.0391 202.227 34.9297C202.445 34.8047 202.68 34.7188 202.93 34.6719C203.195 34.6094 203.438 34.5781 203.656 34.5781C204.156 34.5781 204.648 34.6328 205.133 34.7422C205.617 34.8359 206.117 34.8828 206.633 34.8828C207.273 34.8828 207.914 34.8516 208.555 34.7891C209.211 34.7266 209.859 34.6562 210.5 34.5781C211.141 34.4844 211.781 34.4062 212.422 34.3438C213.078 34.2812 213.734 34.25 214.391 34.25C214.938 34.25 215.484 34.2734 216.031 34.3203C216.578 34.3516 217.125 34.3828 217.672 34.4141C217.766 34.5391 217.93 34.6406 218.164 34.7188C218.398 34.7969 218.648 34.8672 218.914 34.9297C219.195 34.9922 219.469 35.0469 219.734 35.0938C220 35.125 220.203 35.1562 220.344 35.1875C220.719 35.2656 221.039 35.3516 221.305 35.4453C221.586 35.5234 221.82 35.6406 222.008 35.7969C222.211 35.9375 222.383 36.125 222.523 36.3594C222.68 36.5938 222.82 36.8984 222.945 37.2734C222.961 37.3203 223.031 37.3906 223.156 37.4844C223.297 37.5781 223.453 37.6719 223.625 37.7656C223.797 37.8594 223.961 37.9531 224.117 38.0469C224.273 38.1406 224.383 38.2188 224.445 38.2812C224.648 38.4844 224.852 38.7969 225.055 39.2188C225.273 39.625 225.469 40.0625 225.641 40.5312C225.812 41 225.953 41.4609 226.062 41.9141C226.172 42.3672 226.227 42.7344 226.227 43.0156C226.227 43.5938 226.141 44.1719 225.969 44.75C225.812 45.3281 225.648 45.8906 225.477 46.4375C225.367 46.7656 225.203 47.0781 224.984 47.375C224.781 47.6719 224.578 47.9766 224.375 48.2891C224.172 48.5859 223.992 48.8906 223.836 49.2031C223.695 49.5156 223.625 49.8438 223.625 50.1875C223.625 50.6719 223.727 51.1562 223.93 51.6406C224.133 52.125 224.367 52.5703 224.633 52.9766C224.742 53.1641 224.867 53.3438 225.008 53.5156C225.164 53.6875 225.312 53.8594 225.453 54.0312C225.609 54.1875 225.75 54.3594 225.875 54.5469C226 54.7188 226.109 54.9141 226.203 55.1328C226.406 55.6328 226.539 56.1562 226.602 56.7031C226.664 57.2344 226.695 57.7656 226.695 58.2969ZM222.266 43.9766C222.266 43.8047 222.242 43.6016 222.195 43.3672C222.148 43.1328 222.094 42.8984 222.031 42.6641C221.969 42.4141 221.906 42.1719 221.844 41.9375C221.781 41.6875 221.734 41.4688 221.703 41.2812C221.656 41.0469 221.586 40.8594 221.492 40.7188C221.398 40.5625 221.289 40.4375 221.164 40.3438C221.039 40.2344 220.898 40.1328 220.742 40.0391C220.586 39.9297 220.43 39.8047 220.273 39.6641C219.883 39.3203 219.508 39.0469 219.148 38.8438C218.789 38.6406 218.414 38.4844 218.023 38.375C217.633 38.2656 217.219 38.1953 216.781 38.1641C216.344 38.1172 215.859 38.0938 215.328 38.0938C214.984 38.0938 214.625 38.1016 214.25 38.1172C213.891 38.1328 213.562 38.1797 213.266 38.2578C213.203 38.2891 213.164 38.3281 213.148 38.375C213.133 38.4219 213.094 38.4688 213.031 38.5156C212.984 38.5625 212.891 38.6094 212.75 38.6562C212.609 38.6875 212.391 38.7031 212.094 38.7031C211.641 38.7031 211.266 38.7656 210.969 38.8906C210.688 39.0156 210.461 39.1953 210.289 39.4297C210.133 39.6484 210.023 39.9219 209.961 40.25C209.898 40.5625 209.859 40.9219 209.844 41.3281C209.828 41.8438 209.812 42.375 209.797 42.9219C209.797 43.4688 209.773 44.0156 209.727 44.5625C209.68 45.0938 209.594 45.6172 209.469 46.1328C209.359 46.6484 209.18 47.1484 208.93 47.6328C209.805 47.8516 210.695 48.0234 211.602 48.1484C212.508 48.2734 213.398 48.3359 214.273 48.3359C214.883 48.3359 215.492 48.3125 216.102 48.2656C216.727 48.2188 217.336 48.1406 217.93 48.0312C218.148 47.9844 218.438 47.8984 218.797 47.7734C219.172 47.6484 219.531 47.4922 219.875 47.3047C220.234 47.1172 220.547 46.9062 220.812 46.6719C221.094 46.4375 221.25 46.1953 221.281 45.9453C221.312 45.7578 221.375 45.5859 221.469 45.4297C221.578 45.2734 221.688 45.125 221.797 44.9844C221.922 44.8281 222.031 44.6719 222.125 44.5156C222.219 44.3594 222.266 44.1797 222.266 43.9766ZM223.039 59.6328C223.039 59.2266 222.984 58.8203 222.875 58.4141C222.781 58.0078 222.703 57.6016 222.641 57.1953C222.594 56.8203 222.547 56.5234 222.5 56.3047C222.469 56.0859 222.406 55.8984 222.312 55.7422C222.234 55.5703 222.117 55.4062 221.961 55.25C221.805 55.0938 221.578 54.8906 221.281 54.6406C221.203 54.2969 221.117 54.0938 221.023 54.0312C220.945 53.9688 220.859 53.9375 220.766 53.9375C220.688 53.9375 220.602 53.9453 220.508 53.9609C220.43 53.9609 220.352 53.9609 220.273 53.9609L219.945 53.3047C219.648 53.1016 219.383 52.9453 219.148 52.8359C218.93 52.7266 218.641 52.6562 218.281 52.625C217.969 52.5938 217.656 52.5312 217.344 52.4375C217.047 52.3438 216.734 52.2969 216.406 52.2969C216.266 52.2969 216.156 52.3516 216.078 52.4609C216 52.5703 215.938 52.625 215.891 52.625C215.797 52.625 215.688 52.6094 215.562 52.5781C215.438 52.5312 215.305 52.4922 215.164 52.4609C215.023 52.4141 214.875 52.375 214.719 52.3438C214.578 52.2969 214.445 52.2734 214.32 52.2734C213.617 52.2734 212.93 52.3516 212.258 52.5078C211.602 52.6484 210.938 52.8047 210.266 52.9766C210.141 53.3047 210.016 53.6641 209.891 54.0547C209.781 54.4453 209.68 54.8438 209.586 55.25C209.492 55.6562 209.414 56.0625 209.352 56.4688C209.289 56.8594 209.258 57.2266 209.258 57.5703C209.258 57.7422 209.273 57.8828 209.305 57.9922C209.336 58.0859 209.375 58.1719 209.422 58.25C209.469 58.3281 209.508 58.4062 209.539 58.4844C209.57 58.5625 209.586 58.6562 209.586 58.7656C209.586 59.3906 209.516 60.0078 209.375 60.6172C209.25 61.2109 209.188 61.8203 209.188 62.4453C209.188 62.8516 209.242 63.2422 209.352 63.6172C209.461 63.9922 209.648 64.3359 209.914 64.6484C210.227 64.6484 210.523 64.7109 210.805 64.8359C211.086 64.9453 211.383 65 211.695 65C211.914 65 212.125 64.9453 212.328 64.8359C212.547 64.7266 212.719 64.6719 212.844 64.6719C212.969 64.6719 213.062 64.7266 213.125 64.8359C213.203 64.9453 213.328 65 213.5 65H213.594C213.641 64.9219 213.727 64.8594 213.852 64.8125C213.977 64.75 214.117 64.7109 214.273 64.6953C214.445 64.6641 214.625 64.6484 214.812 64.6484C215 64.6328 215.18 64.625 215.352 64.625C215.68 64.625 215.93 64.6328 216.102 64.6484C216.289 64.6641 216.5 64.6719 216.734 64.6719C217.391 64.5312 218.016 64.3594 218.609 64.1562C219.109 63.9844 219.617 63.7656 220.133 63.5C220.664 63.2344 221.078 62.9219 221.375 62.5625C221.531 62.4062 221.703 62.2109 221.891 61.9766C222.094 61.7422 222.273 61.5 222.43 61.25C222.602 60.9844 222.742 60.7188 222.852 60.4531C222.977 60.1719 223.039 59.8984 223.039 59.6328Z" fill="#010101"/>
<path id="EXPLORER" d="M115.166 107V102.68H104.294V96.812H113.006V92.564H104.294V86.84H115.166V82.52H99.3261V107H115.166ZM116.92 82.52L123.976 95.264L116.92 107H122.068L126.712 98.54L131.248 107H136.756L129.7 95.012L136.756 82.52H131.608L126.964 91.52L122.428 82.52H116.92ZM148.756 99.872H144.724V107H139.756V82.52H148.756C154.564 82.52 157.468 85.352 157.468 91.016C157.468 93.896 156.736 96.092 155.272 97.604C153.808 99.116 151.636 99.872 148.756 99.872ZM144.724 86.768V95.624H148.72C151.192 95.624 152.428 94.088 152.428 91.016C152.428 89.504 152.128 88.424 151.528 87.776C150.952 87.104 150.016 86.768 148.72 86.768H144.724ZM174.887 102.608H165.923V82.52H160.955V107H174.887V102.608ZM187.007 107.432C185.135 107.432 183.551 107.18 182.255 106.676C180.983 106.172 179.939 105.416 179.123 104.408C178.331 103.376 177.755 102.068 177.395 100.484C177.035 98.9 176.855 97.028 176.855 94.868C176.855 92.708 177.035 90.836 177.395 89.252C177.755 87.644 178.331 86.312 179.123 85.256C179.939 84.176 180.983 83.384 182.255 82.88C183.551 82.352 185.135 82.088 187.007 82.088C188.879 82.088 190.451 82.352 191.723 82.88C193.019 83.384 194.063 84.176 194.855 85.256C195.671 86.312 196.259 87.644 196.619 89.252C196.979 90.836 197.159 92.708 197.159 94.868C197.159 96.716 197.015 98.42 196.727 99.98C196.463 101.516 195.947 102.836 195.179 103.94C194.435 105.044 193.403 105.908 192.083 106.532C190.787 107.132 189.095 107.432 187.007 107.432ZM183.047 101.204C183.743 102.476 185.063 103.112 187.007 103.112C187.991 103.112 188.795 102.968 189.419 102.68C190.067 102.368 190.583 101.888 190.967 101.24C191.375 100.568 191.651 99.716 191.795 98.684C191.963 97.628 192.047 96.356 192.047 94.868C192.047 93.38 191.963 92.108 191.795 91.052C191.627 89.996 191.351 89.12 190.967 88.424C190.583 87.728 190.067 87.224 189.419 86.912C188.771 86.576 187.967 86.408 187.007 86.408C186.047 86.408 185.243 86.576 184.595 86.912C183.947 87.224 183.431 87.728 183.047 88.424C182.663 89.12 182.387 89.996 182.219 91.052C182.051 92.108 181.967 93.38 181.967 94.868C181.967 97.82 182.327 99.932 183.047 101.204ZM211.176 98.792H206.388V107H201.42V82.52H210.924C216.684 82.52 219.564 85.208 219.564 90.584C219.564 93.776 218.364 96.128 215.964 97.64L219.456 107H214.02L211.176 98.792ZM206.388 94.544H210.996C212.172 94.544 213.048 94.184 213.624 93.464C214.2 92.744 214.488 91.796 214.488 90.62C214.488 89.444 214.176 88.508 213.552 87.812C212.952 87.116 212.076 86.768 210.924 86.768H206.388V94.544ZM239.584 107V102.68H228.712V96.812H237.424V92.564H228.712V86.84H239.584V82.52H223.744V107H239.584ZM253.434 98.792H248.646V107H243.678V82.52H253.182C258.942 82.52 261.822 85.208 261.822 90.584C261.822 93.776 260.622 96.128 258.222 97.64L261.714 107H256.278L253.434 98.792ZM248.646 94.544H253.254C254.43 94.544 255.306 94.184 255.882 93.464C256.458 92.744 256.746 91.796 256.746 90.62C256.746 89.444 256.434 88.508 255.81 87.812C255.21 87.116 254.334 86.768 253.182 86.768H248.646V94.544Z" fill="#FD951F"/>
</g>
</svg>
